<svg xmlns="http://www.w3.org/2000/svg" width="1024" height="1024" viewBox="0 0 1024 1024">
  <metadata><?xpacket begin="﻿" id="W5M0MpCehiHzreSzNTczkc9d"?>
<x:xmpmeta xmlns:x="adobe:ns:meta/" x:xmptk="Adobe XMP Core 5.6-c142 79.160924, 2017/07/13-01:06:39        ">
   <rdf:RDF xmlns:rdf="http://www.w3.org/1999/02/22-rdf-syntax-ns#">
      <rdf:Description rdf:about=""/>
   </rdf:RDF>
</x:xmpmeta>
                                                                                                    
                                                                                                    
                                                                                                    
                                                                                                    
                                                                                                    
                                                                                                    
                                                                                                    
                                                                                                    
                                                                                                    
                                                                                                    
                                                                                                    
                                                                                                    
                                                                                                    
                                                                                                    
                                                                                                    
                                                                                                    
                                                                                                    
                                                                                                    
                                                                                                    
                                                                                                    
                           
<?xpacket end="w"?></metadata>
<defs>
    <style>
      .cls-1 {
        fill-rule: evenodd;
        opacity: 0.1;
      }
    </style>
  </defs>
  <path id="Outline_thin" data-name="Outline thin" class="cls-1" d="M31.508,410.213A214.485,214.485,0,0,1,64.756,296.076a238,238,0,0,1,85.8-80.792C186.938,129.667,272.032,74.353,367.392,74.353l2.824-.053,3.878-.04C414.357,46.28,462.04,31.489,512,31.489c49.938,0,97.611,14.791,137.878,42.771l3.889,0.041,2.841,0.052c95.343,0,180.426,55.314,216.81,140.931a238.094,238.094,0,0,1,85.813,80.792,214.433,214.433,0,0,1,33.261,114.137c0,34.895-8.766,69.133-26.04,101.773,17.274,32.639,26.04,66.888,26.04,101.8a218.275,218.275,0,0,1-32.214,114.119,231.32,231.32,0,0,1-84.773,80.782c-17.452,41.065-47,76.12-85.475,101.379a242.3,242.3,0,0,1-133.422,39.58l-2.732.039-4,.026c-40.291,28-87.964,42.8-137.877,42.8-49.933,0-97.615-14.8-137.9-42.8l-3.977-.026-2.726-.039a242.359,242.359,0,0,1-133.435-39.58c-38.482-25.261-68.038-60.316-85.49-101.379A231.254,231.254,0,0,1,63.71,727.906a218.32,218.32,0,0,1-32.2-114.119c0-34.947,8.757-69.2,26.013-101.8C40.264,479.381,31.508,445.141,31.508,410.213ZM65.6,296.608A213.486,213.486,0,0,0,32.508,410.213c0,34.249,8.474,67.835,25.152,99.861,2.4-61.348,10.033-111.039,24.013-156.2,14.321-46.26,35.855-89.767,67.661-136.74A236.856,236.856,0,0,0,65.6,296.608Zm83.757,351.925V801.48c0,4.125,0,5.843-.054,6.612,57.634,70.018,154.071,115.083,224.914,140.579l137.768-67.843,137.769,67.843c70.821-25.489,167.22-70.535,224.858-140.514V648.533l76.68-115.464c10.171-15.315,13.11-19.739,14.063-21.031l-0.028-.052,0.061-.115c-2.315-62.076-9.956-112.191-24.045-157.7C926.889,307.483,905.085,263.6,872.735,216.1L724.553,195.224,649.406,75.193c-84.787-22.946-190.056-22.946-274.841,0L299.419,195.224l-0.231.033c-129.9,18.3-145.943,20.556-147.95,20.835-32.351,47.507-54.155,91.39-68.61,138.082-14.086,45.5-21.727,95.607-24.043,157.671ZM367.392,75.353c-94.711,0-179.246,54.79-215.631,139.659L298.819,194.3,373.34,75.268l-3.1.033Zm9.517-1.8c83.624-22.067,186.523-22.069,270.149,0C607.437,46.682,560.808,32.489,512,32.489,463.168,32.489,416.527,46.683,376.909,73.55Zm279.7,1.8L653.74,75.3l-3.108-.033c6.948,11.1,74.288,118.657,74.522,119.031l147.057,20.713C835.827,130.143,751.3,75.353,656.608,75.353Zm334.884,334.86a213.43,213.43,0,0,0-33.108-113.605,236.921,236.921,0,0,0-83.744-79.469c31.805,46.973,53.338,90.479,67.66,136.739,13.98,45.158,21.615,94.849,24.012,156.2C983.009,478.015,991.492,444.43,991.492,410.213Zm-32.067,317.17a217.27,217.27,0,0,0,32.067-113.6c0-34.563-8.637-68.475-25.653-100.813-7.593,11.432-90.067,135.622-90.226,135.861,0,3.815,0,145.107,0,158.639A230.28,230.28,0,0,0,959.425,727.383ZM656.608,948.647a241.311,241.311,0,0,0,132.873-39.416c37.348-24.522,66.222-58.329,83.748-97.9-57.319,67.884-150.8,111.993-220.621,137.36l1.247-.008Zm-7.874.636-136.748-67.34L375.238,949.282c40,27.626,87.27,42.229,136.762,42.229A239.336,239.336,0,0,0,648.734,949.283ZM234.506,909.231a241.366,241.366,0,0,0,132.886,39.416l2.747,0.039,1.221,0.008c-69.822-25.37-163.3-69.481-220.62-137.367C168.266,850.9,197.145,884.706,234.506,909.231Zm-202-295.444a217.319,217.319,0,0,0,32.055,113.6,230.187,230.187,0,0,0,83.8,80.091V648.835L58.133,512.974C41.136,545.278,32.508,579.19,32.508,613.787Z"/>
</svg>
