<svg xmlns="http://www.w3.org/2000/svg" width="1024" height="1024" viewBox="0 0 1024 1024">
  <metadata><?xpacket begin="﻿" id="W5M0MpCehiHzreSzNTczkc9d"?>
<x:xmpmeta xmlns:x="adobe:ns:meta/" x:xmptk="Adobe XMP Core 5.6-c142 79.160924, 2017/07/13-01:06:39        ">
   <rdf:RDF xmlns:rdf="http://www.w3.org/1999/02/22-rdf-syntax-ns#">
      <rdf:Description rdf:about=""/>
   </rdf:RDF>
</x:xmpmeta>
                                                                                                    
                                                                                                    
                                                                                                    
                                                                                                    
                                                                                                    
                                                                                                    
                                                                                                    
                                                                                                    
                                                                                                    
                                                                                                    
                                                                                                    
                                                                                                    
                                                                                                    
                                                                                                    
                                                                                                    
                                                                                                    
                                                                                                    
                                                                                                    
                                                                                                    
                                                                                                    
                           
<?xpacket end="w"?></metadata>
<defs>
    <style>
      .cls-1 {
        fill: #fff;
      }

      .cls-1, .cls-2, .cls-3 {
        fill-rule: evenodd;
      }

      .cls-2 {
        fill: #d9d9d9;
      }
    </style>
  </defs>
  <path id="Outside_Border" data-name="Outside Border" class="cls-1" d="M365.154,44.9a271.631,271.631,0,0,0-147.38,44.379A258.575,258.575,0,0,0,125.5,194.676a260.771,260.771,0,0,0-86.931,86.006A247.746,247.746,0,0,0,2,410.215c0,34.692,7.737,68.906,22.837,101.8C9.737,544.906,2,579.11,2,613.785A243.88,243.88,0,0,0,39.786,743.617c21.7,34.53,52.046,64.082,87.8,85.746A258.638,258.638,0,0,0,223.505,937.74,268.341,268.341,0,0,0,365.112,979.1a272.955,272.955,0,0,0,293.806,0,268.408,268.408,0,0,0,141.6-41.357A258.633,258.633,0,0,0,896.44,829.362c35.753-21.663,66.091-51.216,87.789-85.749A243.912,243.912,0,0,0,1022,613.785c0-34.7-7.73-68.9-22.811-101.771,15.081-32.87,22.811-67.083,22.811-101.8a247.811,247.811,0,0,0-36.55-129.53,260.709,260.709,0,0,0-86.918-86.009,258.55,258.55,0,0,0-92.3-105.4A271.683,271.683,0,0,0,658.874,44.9,272.807,272.807,0,0,0,365.154,44.9Z"/>
  <path id="Outside_Stroke" data-name="Outside Stroke" class="cls-2" d="M368.134,54.852l-0.744.011A261.766,261.766,0,0,0,223.263,97.642c-39.781,26.118-70.76,61.964-89.994,103.944A250.468,250.468,0,0,0,47.09,285.908,237.753,237.753,0,0,0,12,410.215c0,34.878,8.06,69.063,23.794,101.8C20.06,544.749,12,578.924,12,613.785A233.9,233.9,0,0,0,48.252,738.3a257.2,257.2,0,0,0,87.107,84.152C176.2,911.778,266.5,969.137,367.39,969.137l0.706,0.013a263.112,263.112,0,0,0,287.837,0l0.677-.013c100.911,0,191.218-57.359,232.058-146.69a257.119,257.119,0,0,0,87.1-84.154A233.95,233.95,0,0,0,1012,613.785c0-34.89-8.05-69.065-23.767-101.771,15.717-32.708,23.767-66.893,23.767-101.8a237.806,237.806,0,0,0-35.076-124.3,250.4,250.4,0,0,0-86.165-84.324c-19.234-41.979-50.219-77.825-90.01-103.945A261.821,261.821,0,0,0,656.61,54.863l-0.716-.011A262.972,262.972,0,0,0,368.134,54.852Zm5.509,8.346-2.437,1.609-3.816.057A251.787,251.787,0,0,0,228.752,106c-38.072,25-67.945,59.489-86.391,99.75l-1.3,2.849-2.7,1.594a240.929,240.929,0,0,0-82.742,80.94A227.76,227.76,0,0,0,22,410.215c0,33.189,7.673,65.981,22.807,97.467l2.082,4.332-2.082,4.332C29.674,547.831,22,580.614,22,613.785a223.913,223.913,0,0,0,34.719,119.19,247.639,247.639,0,0,0,83.722,80.86l2.706,1.6,1.307,2.857A238.67,238.67,0,0,0,234.2,920.842,248.493,248.493,0,0,0,367.39,959.137l3.8,0.071,2.416,1.6a253.118,253.118,0,0,0,276.817,0l2.414-1.6,3.676-.074h0.1a248.553,248.553,0,0,0,133.207-38.295,238.662,238.662,0,0,0,89.756-102.554l1.307-2.857,2.706-1.6A247.543,247.543,0,0,0,967.3,732.973,223.948,223.948,0,0,0,1002,613.785c0-33.2-7.664-65.983-22.781-97.44l-2.081-4.331,2.081-4.331C994.336,476.224,1002,443.43,1002,410.215a227.812,227.812,0,0,0-33.6-119.08,240.849,240.849,0,0,0-82.728-80.941l-2.7-1.594-1.3-2.849C863.221,165.492,833.343,131,795.261,106A251.846,251.846,0,0,0,656.61,64.863l-3.78-.056L650.385,63.2A252.973,252.973,0,0,0,373.643,63.2Z"/>
  <path id="Outside" class="cls-3" d="M991.978,613.789c0,83.193-48.811,155.6-118.938,194.581-34.952,82.414-117.775,140.778-216.446,140.778-2.136,0-4.735.151-6.856,0.1-38.808,27.007-86.1,42.77-137.752,42.77s-98.915-15.765-137.724-42.77c-2.12.055-4.75-.1-6.884-0.1-98.672,0-181.466-58.364-216.418-140.778C80.831,769.392,31.994,696.982,31.994,613.789c0-36.632,9.877-71.2,26.1-101.773-16.221-30.571-26.1-65.17-26.1-101.8,0-83.193,46.75-155.575,116.879-194.553C183.825,133.247,268.706,74.854,367.378,74.854c2.134,0,4.764-.12,6.884-0.066,38.809-27.006,86.066-42.8,137.724-42.8s98.944,15.792,137.752,42.8c2.121-.055,4.72.066,6.856,0.066,98.671,0,183.581,58.393,218.533,140.807,70.127,38.978,116.851,111.36,116.851,194.553,0,36.632-9.849,71.231-26.07,101.8C982.129,542.586,991.978,577.157,991.978,613.789Z"/>
  <path id="Middle" class="cls-1" d="M875.127,375.317l90.781,136.7h0C961.442,632.173,937.137,714.3,873.041,808.37h0L724.867,829.24l-75.129,120h-0.005c-84.572,22.931-190.9,22.931-275.474,0a0,0,0,0,1,0,0l-75.128-120L150.96,808.37h0c-64.1-94.069-88.4-176.2-92.868-296.354h0l90.781-136.7V215.662a0,0,0,0,0,0,0c54.1-65.766,143.515-111.429,225.387-140.872h0L512,142.616,649.738,74.789h0c81.873,29.443,171.291,75.106,225.388,140.872h0V375.317Z"/>
  <path id="Middle_Stroke" data-name="Middle Stroke" class="cls-2" d="M867.4,798.307c-8.325,1.17-148.438,20.892-148.438,20.892l-75.5,120.512c-81.506,21.289-181.42,21.289-262.927,0L305.035,819.2l-4.613-.65c-99.908-14.062-132.763-18.686-143.8-20.21C97,709.789,72.764,631.977,68,514.109l90.7-136.476s0-157.484,0-158.972C214.21,153.026,305.145,109.979,373.605,85L512,153.1,650.4,85c68.461,24.98,159.4,68.027,214.907,133.662V377.633L956,514.109C951.237,631.963,927.005,709.77,867.4,798.307ZM855.413,379.92V221.674C801.829,160.026,715.751,119,650.982,95L512,163.406,373.019,95c-64.769,24-150.848,65.024-204.433,126.671,0,7.3,0,158.247,0,158.247L78,516.255c4.935,112.875,28.017,187.46,84.353,272.282l148.62,20.893L386.807,930.5c77.647,19.5,172.745,19.5,250.386,0L713.027,809.43l148.64-20.925c56.322-84.809,79.4-159.384,84.333-272.25Z"/>
  <path id="Footbag.app" class="cls-3" d="M790,381V507H737V381H715.63c-0.337-1.045-.668-2.091-1.036-3.136A102.613,102.613,0,0,0,701,351.9V328h36V275h53v53h36v53H790Zm-78.719,33.151a98.809,98.809,0,0,1-5.893,32.965,92.625,92.625,0,0,1-17.68,30.257,91.082,91.082,0,0,1-29.624,22.136q-17.841,8.6-42.047,8.6t-42.045-8.6a90.975,90.975,0,0,1-29.624-22.136,92.449,92.449,0,0,1-17.68-30.257,95.146,95.146,0,0,1,0-65.929,92.51,92.51,0,0,1,17.68-30.257,91.06,91.06,0,0,1,29.624-22.136q17.833-8.6,42.045-8.6t42.047,8.6a91.166,91.166,0,0,1,29.624,22.136,92.687,92.687,0,0,1,17.68,30.257A98.807,98.807,0,0,1,711.281,414.151Zm-56.223-17.835a42.1,42.1,0,0,0-9.236-14.174,43.916,43.916,0,0,0-13.539-9.237,41.133,41.133,0,0,0-32.491,0,43.864,43.864,0,0,0-13.538,9.237,42.041,42.041,0,0,0-9.237,14.174,49.225,49.225,0,0,0,0,35.672,41.958,41.958,0,0,0,9.237,14.173,43.775,43.775,0,0,0,13.538,9.236,41.133,41.133,0,0,0,32.491,0,43.827,43.827,0,0,0,13.539-9.236,42.016,42.016,0,0,0,9.236-14.173A49.225,49.225,0,0,0,655.058,396.316ZM517.026,377.864a105.134,105.134,0,0,0,0,72.578c0.446,1.265.924,2.516,1.424,3.756,0.461,1.162.952,2.308,1.454,3.45h0a93.2,93.2,0,0,1-13.2,19.725,91.088,91.088,0,0,1-29.623,22.136q-17.842,8.6-42.048,8.6t-42.045-8.6a90.975,90.975,0,0,1-29.624-22.136,92.449,92.449,0,0,1-17.68-30.257,95.146,95.146,0,0,1,0-65.929,92.51,92.51,0,0,1,17.68-30.257,91.06,91.06,0,0,1,29.624-22.136q17.833-8.6,42.045-8.6t42.048,8.6a91.173,91.173,0,0,1,29.623,22.136,93.3,93.3,0,0,1,13.2,19.726c-0.5,1.143-.994,2.29-1.455,3.452C517.95,375.348,517.472,376.6,517.026,377.864Zm-42.968,18.452a42.1,42.1,0,0,0-9.236-14.174,43.916,43.916,0,0,0-13.539-9.237,41.133,41.133,0,0,0-32.491,0,43.864,43.864,0,0,0-13.538,9.237,42.041,42.041,0,0,0-9.237,14.174,49.225,49.225,0,0,0,0,35.672,41.958,41.958,0,0,0,9.237,14.173,43.775,43.775,0,0,0,13.538,9.236,41.133,41.133,0,0,0,32.491,0,43.827,43.827,0,0,0,13.539-9.236,42.016,42.016,0,0,0,9.236-14.173A49.225,49.225,0,0,0,474.058,396.316ZM276.872,328L350,328v23.634a102.463,102.463,0,0,0-13.793,26.23c-0.368,1.045-.7,2.09-1.037,3.136H277v67H224V235H352.689v52.871H276.872V328Zm0,202.965a52.882,52.882,0,0,1,14.812-11.625,76.613,76.613,0,0,1,14.971-5.892,64.7,64.7,0,0,1,12.9-2.23q5.735-.313,8.6-0.318a90.7,90.7,0,0,1,29.147,5.255,83.256,83.256,0,0,1,28.19,16.4,86.035,86.035,0,0,1,19.332,25.156c-0.679,1.454-1.338,2.927-1.966,4.428-5.376,12.845-8.1,27.324-8.1,43.034a117.6,117.6,0,0,0,6.63,39.5c0.941,2.653,1.994,5.235,3.118,7.77a86.206,86.206,0,0,1-17.1,23.6A80.828,80.828,0,0,1,358.9,693.879a95.162,95.162,0,0,1-32.968,5.893q-18.8,0-32.173-7.644t-18.475-17.2h-0.636V693.72H224V458.031h52.877v72.936Zm1.115,91.409a44.027,44.027,0,0,0,8.6,14.493,40.832,40.832,0,0,0,13.537,9.873,45.534,45.534,0,0,0,36.154-.159A44.263,44.263,0,0,0,350.14,636.55a44.844,44.844,0,0,0,8.919-14.492,46.7,46.7,0,0,0,3.186-16.88,47.546,47.546,0,0,0-3.026-16.721,43.11,43.11,0,0,0-8.759-14.332,44.859,44.859,0,0,0-13.7-10.034,40.731,40.731,0,0,0-17.838-3.822,42.773,42.773,0,0,0-41.091,28.347,47.609,47.609,0,0,0-2.867,16.243A50.523,50.523,0,0,0,277.992,622.376ZM397.641,755.557a41.536,41.536,0,0,0,7.78,13.4c0.185,0.212.381,0.413,0.57,0.621v0.411H382.016V751H396.3A44.561,44.561,0,0,0,397.641,755.557Zm9.838-28.875a31.4,31.4,0,0,1,6.611-10.09,28.3,28.3,0,0,1,9.591-6.367,30.517,30.517,0,0,1,11.542-2.212,24.848,24.848,0,0,1,6.611.809,22.131,22.131,0,0,1,5.094,2.051,16.022,16.022,0,0,1,3.576,2.7,17.313,17.313,0,0,1,2.276,2.86H453v-6.367h17.99v59.892H453V763.48H452.78a14.024,14.024,0,0,1-3.034,3.777,16.958,16.958,0,0,1-4.227,2.7,21.686,21.686,0,0,1-5.04,1.565,29.149,29.149,0,0,1-5.256.485,30.283,30.283,0,0,1-12.788-2.59,27.673,27.673,0,0,1-9.483-7.014,31.455,31.455,0,0,1-5.907-10.2,36.17,36.17,0,0,1-2.059-12.248A33.949,33.949,0,0,1,407.479,726.682Zm16.31,18.237a15.714,15.714,0,0,0,2.6,4.91A14.722,14.722,0,0,0,431,753.714a14.1,14.1,0,0,0,6.936,1.565,14.325,14.325,0,0,0,14.305-10.468,18.149,18.149,0,0,0,.759-4.856,16.643,16.643,0,0,0-.921-5.4,14.915,14.915,0,0,0-2.818-4.91,14.089,14.089,0,0,0-4.769-3.562,15.542,15.542,0,0,0-6.665-1.349,14.13,14.13,0,0,0-6.665,1.457,14.682,14.682,0,0,0-4.606,3.723,15.16,15.16,0,0,0-2.709,4.964,17.2,17.2,0,0,0-.867,5.288A15.983,15.983,0,0,0,423.789,744.919Zm74.027-28.265h0.323a24.336,24.336,0,0,1,7.222-6.049,22.752,22.752,0,0,1,11.427-2.592,27.166,27.166,0,0,1,13.528,3.132A29.55,29.55,0,0,1,536,715.328v49.305a28.833,28.833,0,0,1-7.409,4.95,27.37,27.37,0,0,1-11.7,2.485,25.441,25.441,0,0,1-7.06-.864,26.6,26.6,0,0,1-5.174-2.053,18.934,18.934,0,0,1-3.612-2.43,24.245,24.245,0,0,1-2.155-2.106V801H481V710.065h16.816v6.589Zm1.347,29a15.19,15.19,0,0,0,2.965,4.915,14.866,14.866,0,0,0,21.99,0,15.24,15.24,0,0,0,2.964-4.915,15.907,15.907,0,0,0-2.8-15.878,14.788,14.788,0,0,0-4.689-3.619,15.6,15.6,0,0,0-12.935,0,14.744,14.744,0,0,0-4.689,3.619A15.751,15.751,0,0,0,499.163,745.657Zm9.923-47.318a85.463,85.463,0,0,1-15.449,1.433q-21.024,0-37.587-7.644a81.414,81.414,0,0,1-27.873-20.7,92.95,92.95,0,0,1-17.36-30.1,107.154,107.154,0,0,1-6.052-36.149q0-21.655,7.327-39.176a92.742,92.742,0,0,1,19.43-29.779,83.151,83.151,0,0,1,28.191-18.792,89.387,89.387,0,0,1,33.924-6.529,72.65,72.65,0,0,1,19.43,2.389,64.944,64.944,0,0,1,14.972,6.051A47.123,47.123,0,0,1,538.55,527.3a50.891,50.891,0,0,1,6.69,8.44h0.637V516.953H598.51l0.02,0c0.074,0.01.15,0.018,0.224,0.027v41.8c-0.5,1.1-1.012,2.187-1.486,3.309C591.781,575.066,589,589.946,589,606.314c0,15.5,2.667,29.769,7.929,42.417,0.581,1.4,1.2,2.765,1.826,4.121V693.72H545.877V674.61H545.24a41.3,41.3,0,0,1-8.919,11.148A49.76,49.76,0,0,1,523.9,693.72,63.465,63.465,0,0,1,509.086,698.339Zm27.076-64.019a43.367,43.367,0,0,0,7.485-14.809,53.845,53.845,0,0,0,2.23-14.333,49.333,49.333,0,0,0-2.707-15.925,44.069,44.069,0,0,0-8.283-14.492,41.413,41.413,0,0,0-14.015-10.51,45.481,45.481,0,0,0-19.59-3.982q-11.467,0-19.59,4.3a43.118,43.118,0,0,0-13.538,10.988,44.813,44.813,0,0,0-7.964,14.651,50.975,50.975,0,0,0-2.548,15.606,47.313,47.313,0,0,0,2.389,14.015,46.489,46.489,0,0,0,7.646,14.491,43.32,43.32,0,0,0,13.537,11.466q8.279,4.62,20.386,4.619,12.423,0,20.864-4.619A42.889,42.889,0,0,0,536.162,634.32ZM562.8,716.654h0.324a24.311,24.311,0,0,1,7.222-6.049,22.745,22.745,0,0,1,11.426-2.592,29.865,29.865,0,0,1,10.242,1.64l0.25,1.89A77.854,77.854,0,0,0,599.708,735c0.584,1.2,1.222,2.393,1.889,3.573,0.2,0.36.422,0.714,0.633,1.072q0.739,1.251,1.538,2.485,0.376,0.576.764,1.148c0.57,0.84,1.166,1.67,1.78,2.5,0.232,0.311.454,0.624,0.692,0.933,0.872,1.133,1.776,2.255,2.73,3.358-0.261.941-.558,1.869-0.9,2.782a30.843,30.843,0,0,1-6.037,9.991,28.646,28.646,0,0,1-9.216,6.751,27.376,27.376,0,0,1-11.7,2.485,25.453,25.453,0,0,1-7.061-.864,26.622,26.622,0,0,1-5.174-2.053,18.891,18.891,0,0,1-3.611-2.43,24.14,24.14,0,0,1-2.156-2.106V801H545.988V710.065H562.8v6.589Zm1.348,29a15.187,15.187,0,0,0,2.964,4.915,14.866,14.866,0,0,0,21.99,0,15.2,15.2,0,0,0,2.964-4.915,15.911,15.911,0,0,0-2.8-15.878,14.788,14.788,0,0,0-4.689-3.619,15.6,15.6,0,0,0-12.936,0,14.766,14.766,0,0,0-4.689,3.619,15.7,15.7,0,0,0-2.856,4.915A15.57,15.57,0,0,0,564.152,745.657ZM602,710.282h61.159a24.575,24.575,0,0,0,7.486,10.192,32.775,32.775,0,0,0,9.4,5.1,37.553,37.553,0,0,0,8.76,1.912q3.981,0.314,5.256.318,2.546,0,9.556-.8a35.466,35.466,0,0,0,14.494-5.414q7.479-4.62,13.219-14.333t5.734-27.549v-5.415H736.42a39.121,39.121,0,0,1-5.892,8.281,43.465,43.465,0,0,1-10.034,8.121,65.754,65.754,0,0,1-14.016,6.211A60.728,60.728,0,0,1,688,699.453a90.236,90.236,0,0,1-34.243-6.529,85.853,85.853,0,0,1-28.35-18.632,88.326,88.326,0,0,1-19.431-29.3q-7.166-17.2-7.166-38.538,0-22.611,7.486-40.291a91.7,91.7,0,0,1,19.908-29.938,84.57,84.57,0,0,1,28.509-18.633A89.669,89.669,0,0,1,688,511.22a73.683,73.683,0,0,1,28.19,5.415,43.107,43.107,0,0,1,20.547,16.88L737,534V517h53V672c0,13.168-.438,24.691-1.818,33.823a71.1,71.1,0,0,1-8.44,24.844A74.252,74.252,0,0,1,766.2,746.591,88.262,88.262,0,0,1,746.3,759.969a117.621,117.621,0,0,1-25.642,9.076C711.2,771.275,700.831,772,690,772c-15.289,0-28.117-1.68-38.948-5.821S631.3,756.888,624.3,750.732a64.259,64.259,0,0,1-15.768-20.065A67.452,67.452,0,0,1,602,710.282Zm132.034-123.1a41.787,41.787,0,0,0-9.238-14.333,41.3,41.3,0,0,0-13.7-9.078,43.935,43.935,0,0,0-16.723-3.185A41.647,41.647,0,0,0,664.59,572.85a44.471,44.471,0,0,0-12.9,31.691,48.939,48.939,0,0,0,3.5,18.951,43.557,43.557,0,0,0,9.4,14.332,41.5,41.5,0,0,0,13.539,9.077,40.951,40.951,0,0,0,15.926,3.185,44.8,44.8,0,0,0,17.52-3.344,42.352,42.352,0,0,0,13.7-9.077,39.965,39.965,0,0,0,8.919-13.855,48.071,48.071,0,0,0,3.185-17.677A51.08,51.08,0,0,0,734.032,587.183Z"/>
</svg>
