<svg xmlns="http://www.w3.org/2000/svg" width="1024" height="1024" viewBox="0 0 1024 1024">
  <metadata><?xpacket begin="﻿" id="W5M0MpCehiHzreSzNTczkc9d"?>
<x:xmpmeta xmlns:x="adobe:ns:meta/" x:xmptk="Adobe XMP Core 5.6-c142 79.160924, 2017/07/13-01:06:39        ">
   <rdf:RDF xmlns:rdf="http://www.w3.org/1999/02/22-rdf-syntax-ns#">
      <rdf:Description rdf:about=""/>
   </rdf:RDF>
</x:xmpmeta>
                                                                                                    
                                                                                                    
                                                                                                    
                                                                                                    
                                                                                                    
                                                                                                    
                                                                                                    
                                                                                                    
                                                                                                    
                                                                                                    
                                                                                                    
                                                                                                    
                                                                                                    
                                                                                                    
                                                                                                    
                                                                                                    
                                                                                                    
                                                                                                    
                                                                                                    
                                                                                                    
                           
<?xpacket end="w"?></metadata>
<defs>
    <style>
      .cls-1 {
        fill-rule: evenodd;
        opacity: 0.04;
      }
    </style>
  </defs>
  <path id="Outline_thin" data-name="Outline thin" class="cls-1" d="M992.492,613.787a214.484,214.484,0,0,1-33.248,114.137,237.992,237.992,0,0,1-85.8,80.792c-36.384,85.617-121.478,140.931-216.838,140.931l-2.824.052s-3.571.038-3.878,0.04C609.643,977.72,561.96,992.511,512,992.511c-49.938,0-97.611-14.791-137.878-42.772-0.307,0-3.889-.041-3.889-0.041l-2.841-.051c-95.343,0-180.426-55.314-216.81-140.931a238.1,238.1,0,0,1-85.813-80.792A214.435,214.435,0,0,1,31.508,613.787c0-34.895,8.766-69.133,26.04-101.773-17.274-32.639-26.04-66.888-26.04-101.8A218.274,218.274,0,0,1,63.722,296.094,231.32,231.32,0,0,1,148.5,215.312c17.452-41.065,47-76.12,85.475-101.379a242.3,242.3,0,0,1,133.422-39.58l2.732-.039,4-.025c40.291-28,87.964-42.8,137.877-42.8,49.933,0,97.615,14.8,137.9,42.8l3.977,0.025,2.726,0.039a242.361,242.361,0,0,1,133.435,39.58c38.482,25.261,68.038,60.316,85.49,101.379a231.251,231.251,0,0,1,84.757,80.782,218.315,218.315,0,0,1,32.2,114.119c0,34.947-8.756,69.195-26.012,101.8C983.736,544.619,992.492,578.859,992.492,613.787ZM958.4,727.392a213.489,213.489,0,0,0,33.094-113.605c0-34.249-8.474-67.835-25.151-99.861-2.4,61.348-10.034,111.039-24.014,156.2-14.32,46.26-35.855,89.767-67.661,136.74A236.862,236.862,0,0,0,958.4,727.392ZM874.641,375.467V222.52c0-4.125,0-5.843.054-6.612C817.062,145.89,720.625,100.825,649.782,75.329L512.014,143.172,374.245,75.329c-70.821,25.489-167.22,70.535-224.858,140.514V375.467L72.707,490.931C62.536,506.246,59.6,510.67,58.644,511.962l0.028,0.052-0.061.115c2.316,62.076,9.956,112.191,24.045,157.7,14.455,46.691,36.26,90.573,68.609,138.079l148.182,20.871,75.147,120.031c84.787,22.946,190.056,22.946,274.841,0l75.146-120.028,0.231-.033c129.9-18.3,145.943-20.556,147.95-20.835,32.351-47.507,54.155-91.39,68.61-138.082,14.086-45.5,21.727-95.607,24.043-157.671ZM656.608,948.647c94.711,0,179.246-54.79,215.631-139.659L725.181,829.7,650.66,948.732l3.1-.033Zm-9.517,1.8c-83.624,22.068-186.523,22.069-270.149,0,39.621,26.864,86.25,41.057,135.058,41.057C560.832,991.511,607.473,977.317,647.091,950.45Zm-279.7-1.8,2.868,0.052,3.108,0.033c-6.948-11.1-74.288-118.657-74.522-119.031L151.789,808.988C188.173,893.857,272.7,948.647,367.392,948.647ZM32.508,613.787A213.437,213.437,0,0,0,65.616,727.392a236.927,236.927,0,0,0,83.745,79.469c-31.805-46.973-53.338-90.479-67.66-136.739-13.981-45.158-21.615-94.849-24.013-156.2C40.991,545.985,32.508,579.57,32.508,613.787Zm32.068-317.17a217.27,217.27,0,0,0-32.068,113.6c0,34.563,8.638,68.475,25.654,100.813l90.226-135.861c0-3.815,0-145.107,0-158.639A230.273,230.273,0,0,0,64.575,296.617ZM367.392,75.353a241.309,241.309,0,0,0-132.873,39.416c-37.348,24.522-66.222,58.329-83.748,97.9,57.319-67.884,150.8-111.993,220.621-137.36l-1.247.008Zm7.874-.636,136.748,67.34L648.762,74.718c-40-27.626-87.27-42.229-136.762-42.229A239.334,239.334,0,0,0,375.266,74.717Zm414.228,40.052A241.364,241.364,0,0,0,656.608,75.353l-2.747-.039-1.221-.008c69.822,25.37,163.3,69.481,220.62,137.367C855.734,173.1,826.855,139.294,789.494,114.769Zm202,295.444a217.324,217.324,0,0,0-32.054-113.6,230.191,230.191,0,0,0-83.8-80.091V375.165C875.8,375.4,958.276,499.6,965.867,511.026,982.864,478.722,991.492,444.81,991.492,410.213Z"/>
</svg>
